<svg width="47" height="46" viewBox="0 0 47 46" fill="#8ab675" xmlns="http://www.w3.org/2000/svg"><path d="M44.6892 27.7887L31.5738 24.5183C30.9304 24.3578 30.2631 24.3153 29.6045 24.393L17.4895 25.8186L5.04864 14.8371C4.51011 14.3618 3.81644 14.0996 3.09815 14.1H2.94853C2.35144 14.1 1.76841 14.2812 1.27659 14.6198C0.78477 14.9584 0.407331 15.4383 0.194212 15.996C-0.0189074 16.5538 -0.057663 17.1631 0.0830728 17.7434C0.223809 18.3237 0.537403 18.8475 0.982366 19.2457L13.594 30.5257C13.9811 30.8705 14.4152 31.1585 14.8834 31.3811V34.3961C14.8823 34.9528 15.0266 35.5002 15.3019 35.984C15.5773 36.4679 15.9742 36.8714 16.4534 37.1548C16.9326 37.4382 17.4775 37.5915 18.0342 37.5996C18.5908 37.6078 19.1399 37.4704 19.6272 37.2012L25.0667 38.247V40.7333H7.05006C6.01168 40.7345 5.01618 41.1476 4.28193 41.8818C3.54769 42.6161 3.13464 43.6115 3.1334 44.6499C3.1334 44.8577 3.21593 45.0569 3.36283 45.2038C3.50973 45.3507 3.70898 45.4333 3.91673 45.4333H43.0833C43.2911 45.4333 43.4903 45.3507 43.6372 45.2038C43.7841 45.0569 43.8667 44.8577 43.8667 44.6499V41.3521C43.8717 40.1076 43.4512 38.8988 42.6748 37.9261C41.8985 36.9534 40.8129 36.2753 39.5983 36.0043L26.0239 32.9195H26.0145H26.0036L22.7363 32.2654L23.2063 31.3317L30.4913 30.5648L43.1907 33.9332H43.2016C43.4416 33.9937 43.6881 34.0242 43.9356 34.024C44.338 34.0253 44.7368 33.947 45.1089 33.7937C45.4809 33.6404 45.8191 33.415 46.1038 33.1306C46.3886 32.8463 46.6143 32.5084 46.7681 32.1365C46.9219 31.7646 47.0007 31.366 47 30.9636V30.7552C47.0008 30.0738 46.7738 29.4118 46.3551 28.8743C45.9364 28.3368 45.35 27.9547 44.6892 27.7887ZM7.05006 42.2999H25.0667V43.8666H4.83401C4.99662 43.4087 5.29688 43.0124 5.69363 42.7319C6.09038 42.4514 6.56418 42.3005 7.05006 42.2999ZM42.2475 40.7333H28.2V42.2999H42.3V43.8666H26.6334V34.6648L39.2513 37.5326C40.0145 37.7031 40.7087 38.0998 41.2431 38.6707C41.7776 39.2417 42.1276 39.9604 42.2475 40.7333ZM25.0667 34.3256V36.6521L20.9362 35.857C20.9417 35.8476 20.9479 35.839 20.9534 35.8288L22.0101 33.7138L25.0667 34.3256ZM19.5513 35.1285C19.3862 35.4583 19.1147 35.7226 18.7807 35.8788C18.4467 36.035 18.0698 36.0739 17.7109 35.9891C17.3521 35.9044 17.0323 35.701 16.8035 35.4119C16.5746 35.1227 16.4501 34.7648 16.45 34.3961V31.8581C16.9037 31.9277 17.3642 31.9398 17.8209 31.8941L21.3545 31.5221L19.5513 35.1285ZM45.4333 30.9636C45.4333 31.19 45.3817 31.4134 45.2825 31.617C45.1833 31.8205 45.0392 31.9988 44.8609 32.1385C44.6827 32.2781 44.475 32.3753 44.2536 32.4228C44.0322 32.4703 43.8029 32.4669 43.5831 32.4127L30.7506 29.0091C30.6587 28.9848 30.5631 28.9773 30.4686 28.9872L17.6579 30.3361C17.114 30.3939 16.5639 30.3369 16.0433 30.1688C15.5228 30.0006 15.0433 29.7251 14.6358 29.3601L2.0242 18.0801C1.81477 17.8935 1.6671 17.6476 1.60081 17.375C1.53452 17.1024 1.55274 16.8162 1.65307 16.5542C1.75339 16.2923 1.93106 16.0671 2.16246 15.9085C2.39386 15.75 2.66803 15.6656 2.94853 15.6666H3.09815C3.43474 15.6667 3.75975 15.7896 4.01229 16.0121L16.7148 27.2208C16.7972 27.294 16.8942 27.3488 16.9994 27.3816C17.1046 27.4144 17.2156 27.4245 17.325 27.4111L29.7878 25.9455C30.2594 25.8891 30.7372 25.9194 31.1978 26.0348L44.3108 29.3076C44.6322 29.3898 44.917 29.5767 45.1203 29.8389C45.3236 30.101 45.4338 30.4234 45.4333 30.7552V30.9636Z" fill="#8ab675"></path><path d="M18.8001 32.8999H17.2334V34.4666H18.8001V32.8999Z" fill="#8ab675"></path><path d="M44.3951 0H27.4164C26.7931 0 26.1954 0.247588 25.7547 0.688298C25.314 1.12901 25.0664 1.72674 25.0664 2.35V18.0166H26.6331V2.35C26.6331 2.14224 26.7156 1.943 26.8625 1.7961C27.0094 1.64919 27.2086 1.56666 27.4164 1.56666H44.3951C44.6418 1.56607 44.8806 1.65343 45.0687 1.81305C45.2568 1.97267 45.3818 2.19411 45.4213 2.4376C45.4609 2.6811 45.4123 2.93071 45.2844 3.14163C45.1565 3.35255 44.9575 3.51097 44.7233 3.58844L37.6397 5.95332C37.1724 6.10912 36.766 6.40778 36.4777 6.80711C36.1894 7.20644 36.0339 7.68625 36.0331 8.17877V9.47832C35.3046 9.62915 34.6344 9.98489 34.1014 10.5037C33.8315 10.0712 33.428 9.73844 32.9521 9.55577C32.4761 9.37309 31.9536 9.35047 31.4637 9.49133C30.9737 9.63219 30.543 9.92885 30.2368 10.3364C29.9305 10.744 29.7654 11.2402 29.7664 11.75V14.1C29.7664 14.7232 30.014 15.321 30.4547 15.7617C30.8954 16.2024 31.4931 16.45 32.1164 16.45V14.8833C31.9086 14.8833 31.7094 14.8008 31.5625 14.6539C31.4156 14.507 31.3331 14.3077 31.3331 14.1V11.75C31.3331 11.5422 31.4156 11.343 31.5625 11.1961C31.7094 11.0492 31.9086 10.9667 32.1164 10.9667C32.3241 10.9667 32.5234 11.0492 32.6703 11.1961C32.8172 11.343 32.8997 11.5422 32.8997 11.75V13.3166C32.8997 14.3554 33.3124 15.3516 34.0469 16.0861C34.7814 16.8207 35.7776 17.2333 36.8164 17.2333C37.8552 17.2333 38.8514 16.8207 39.5859 16.0861C40.3204 15.3516 40.733 14.3554 40.733 13.3166V11.75C40.733 11.5422 40.8156 11.343 40.9625 11.1961C41.1094 11.0492 41.3086 10.9667 41.5164 10.9667C41.7241 10.9667 41.9234 11.0492 42.0703 11.1961C42.2172 11.343 42.2997 11.5422 42.2997 11.75V14.1C42.2997 14.3077 42.2172 14.507 42.0703 14.6539C41.9234 14.8008 41.7241 14.8833 41.5164 14.8833V16.45C42.1396 16.45 42.7374 16.2024 43.1781 15.7617C43.6188 15.321 43.8664 14.7232 43.8664 14.1V11.75C43.8672 11.2403 43.702 10.7441 43.3957 10.3367C43.0893 9.9293 42.6586 9.63277 42.1687 9.49201C41.6788 9.35125 41.1564 9.37393 40.6805 9.55662C40.2047 9.73931 39.8013 10.0721 39.5314 10.5045C38.9984 9.98539 38.3282 9.62937 37.5997 9.47832V8.17799C37.5998 8.01365 37.6517 7.85351 37.7478 7.72024C37.844 7.58697 37.9796 7.48732 38.1355 7.43539L45.2192 5.07443C45.8052 4.87826 46.3023 4.48015 46.6218 3.95122C46.9413 3.4223 47.0623 2.79701 46.9632 2.18707C46.8642 1.57714 46.5515 1.02228 46.0811 0.62164C45.6106 0.220996 45.0131 0.000661343 44.3951 0ZM39.1664 13.3166C39.1664 13.7814 39.0286 14.2358 38.7703 14.6222C38.5121 15.0087 38.1451 15.3099 37.7157 15.4878C37.2863 15.6656 36.8138 15.7122 36.3579 15.6215C35.9021 15.5308 35.4833 15.307 35.1547 14.9783C34.826 14.6497 34.6022 14.231 34.5115 13.7751C34.4209 13.3193 34.4674 12.8467 34.6453 12.4173C34.8231 11.9879 35.1243 11.6209 35.5108 11.3627C35.8973 11.1045 36.3516 10.9667 36.8164 10.9667C37.4396 10.9667 38.0374 11.2142 38.4781 11.6549C38.9188 12.0957 39.1664 12.6934 39.1664 13.3166Z" fill="#8ab675"></path><path d="M37.5999 12.5333H36.0332V14.1H37.5999V12.5333Z" fill="#8ab675"></path><path d="M16.45 21.15H27.4166V23.5H28.9833V20.3666C28.9833 20.1589 28.9008 19.9596 28.7538 19.8127C28.6069 19.6658 28.4077 19.5833 28.1999 19.5833H23.5V17.2333C23.5 16.61 23.2524 16.0123 22.8117 15.5716C22.3709 15.1309 21.7732 14.8833 21.15 14.8833C20.5267 14.8833 19.929 15.1309 19.4883 15.5716C19.0475 16.0123 18.8 16.61 18.8 17.2333V18.0166H20.3666V17.2333C20.3666 17.0256 20.4492 16.8263 20.5961 16.6794C20.743 16.5325 20.9422 16.45 21.15 16.45C21.3577 16.45 21.557 16.5325 21.7039 16.6794C21.8508 16.8263 21.9333 17.0256 21.9333 17.2333V19.5833H15.6666C15.4589 19.5833 15.2596 19.6658 15.1127 19.8127C14.9658 19.9596 14.8833 20.1589 14.8833 20.3666V21.9333H16.45V21.15Z" fill="#8ab675"></path></svg>