<svg width="41" height="41" viewBox="0 0 41 41" fill="#8ab675" xmlns="http://www.w3.org/2000/svg"><g clip-path="url(#clip0)"><path d="M40.7366 20.6446L37.5361 18.156C36.4096 17.2854 34.9359 17.0032 33.5675 17.3962C34.8599 14.6518 35.5314 11.6561 35.534 8.6226C35.5339 3.86162 31.6743 0.00217953 26.9133 0.00226495C25.7461 0.00226495 24.591 0.23937 23.5182 0.699059C21.5909 1.52038 19.412 1.52038 17.4847 0.699059C13.1085 -1.17608 8.04086 0.851349 6.16563 5.22745C5.70594 6.30032 5.46883 7.45535 5.46883 8.6226C5.47165 11.7887 6.20347 14.9117 7.60756 17.7494C6.46141 17.465 5.24924 17.6474 4.23753 18.2564L0.333842 20.5988C0.128254 20.7223 0.00252682 20.9445 0.00244141 21.1844V40.3167C0.00244141 40.6941 0.308389 41 0.685741 41H40.3171C40.6944 41 41.0004 40.6941 41.0004 40.3167V21.1844C41.0006 20.9734 40.9032 20.7741 40.7366 20.6446ZM6.83543 8.6226C6.83996 4.61821 10.0849 1.37322 14.0893 1.36869C15.0716 1.36758 16.0437 1.56711 16.9462 1.95496C19.2173 2.92388 21.7855 2.92388 24.0566 1.95496C27.7391 0.37714 32.0033 2.08325 33.5811 5.76572C33.968 6.66853 34.1674 7.64044 34.1674 8.6226C34.1686 12.2385 33.1523 15.7819 31.2347 18.8475L30.8548 19.4556C30.8022 19.5398 30.7686 19.6345 30.7564 19.733L28.9641 34.0687C28.8488 34.9849 28.0125 35.6341 27.0964 35.5188C26.356 35.4256 25.7671 34.8532 25.6528 34.1158L23.538 20.3733C23.2709 18.6962 21.6949 17.5532 20.0178 17.8203C18.7042 18.0295 17.674 19.0597 17.4648 20.3733L15.3466 34.1158C15.2053 35.0284 14.3509 35.6536 13.4383 35.5122C12.701 35.398 12.1285 34.809 12.0353 34.0687L10.243 19.733C10.2308 19.6345 10.1972 19.5398 10.1447 19.4556L9.76474 18.8475C7.84834 15.7815 6.83321 12.2382 6.83543 8.6226ZM39.6338 39.6334H1.36904V21.5711L4.94064 19.4283C6.25241 18.6403 7.94332 18.9308 8.91676 20.1116L10.6824 34.2354C10.8904 35.9007 12.409 37.0819 14.0742 36.8739C15.422 36.7056 16.4944 35.6632 16.7009 34.3208L18.815 20.5783C18.9655 19.6469 19.8425 19.0139 20.7739 19.1644C21.5007 19.2818 22.0704 19.8516 22.1878 20.5783L24.3019 34.3208C24.5571 35.9795 26.1086 37.1172 27.7673 36.8621C29.1097 36.6555 30.1521 35.5832 30.3204 34.2354L32.0881 20.0911L32.3669 19.7433C33.4311 18.4232 35.3554 18.196 36.6977 19.2322L39.6338 21.5185V39.6334Z" fill="#8ab675"></path><path d="M12.9836 4.10188L12.8469 3.43225C11.4803 3.70625 8.88379 5.19858 8.88379 8.88498H10.2504C10.2504 5.41997 13.0041 4.79612 13.1202 4.77083L12.9836 4.10188Z" fill="#8ab675"></path><path d="M15.7172 3.41852H14.3506V4.78512H15.7172V3.41852Z" fill="#8ab675"></path><path d="M39.6321 13.6681V12.3015H38.2655V13.6681H36.8989V15.0347H38.2655V16.4012H39.6321V15.0347H40.9987V13.6681H39.6321Z" fill="#8ab675"></path><path d="M2.73466 1.36941V0.00280762H1.36806V1.36941H0.00146484V2.736H1.36806V4.1026H2.73466V2.736H4.10126V1.36941H2.73466Z" fill="#8ab675"></path></g><defs><clipPath id="clip0"><rect width="41" height="41" fill="white"></rect></clipPath></defs></svg>