<svg width="49" height="49" viewBox="0 0 49 49" fill="#8ab675" xmlns="http://www.w3.org/2000/svg"><g clip-path="url(#clip0)"><path d="M44.0999 5.71647H41.1598C35.3086 5.70688 29.6257 3.75697 25.0012 0.172098C24.7063 -0.0572845 24.2933 -0.0572845 23.9983 0.172098C19.3738 3.75697 13.6909 5.70688 7.8397 5.71647H4.89969C4.44868 5.71647 4.08302 6.08214 4.08302 6.53314V15.2715C4.07291 29.3096 11.7628 42.2222 24.1102 48.9012C24.3532 49.0331 24.6464 49.0331 24.8893 48.9012C37.2355 42.2229 44.9251 29.3122 44.9165 15.2756V6.53314C44.9165 6.08203 44.5509 5.71647 44.0999 5.71647ZM43.2832 15.2715C43.2925 28.5511 36.1026 40.7922 24.4998 47.2515C12.8982 40.793 5.7085 28.5537 5.71636 15.2756V7.34981H7.8397C13.8387 7.33981 19.6769 5.40971 24.4998 1.84219C29.3226 5.40971 35.1609 7.33981 41.1598 7.34981H43.2832V15.2715Z" fill="#8ab675"></path><path d="M31.6008 8.17045C30.575 8.17096 29.5599 8.37941 28.6167 8.78295C25.9867 9.90424 23.0131 9.90424 20.383 8.78295C16.5267 7.13266 12.0627 8.92097 10.4123 12.7773C10.0087 13.7204 9.80032 14.7356 9.7998 15.7614C9.80256 17.8769 10.295 19.963 11.2388 21.8562L13.1016 25.5819L15.1661 36.5865C15.4917 38.3238 17.1639 39.4684 18.9014 39.1429C20.2702 38.8864 21.3161 37.7741 21.488 36.3921L22.5562 27.8481C22.6956 26.7746 23.6789 26.0174 24.7524 26.157C25.6346 26.2716 26.329 26.966 26.4435 27.8481L27.5117 36.3946C27.7299 38.1487 29.3287 39.3938 31.0828 39.1755C32.4648 39.0036 33.5772 37.9578 33.8336 36.5889L35.8981 25.5786L37.761 21.8529C38.7042 19.9606 39.1968 17.8758 39.1999 15.7614C39.1976 11.5669 35.7954 8.1682 31.6008 8.17045ZM36.2998 21.1229V21.1254L34.3856 24.9539C34.352 25.0215 34.328 25.0936 34.3145 25.1679L32.2287 36.291C32.07 37.1418 31.2515 37.7029 30.4007 37.5441C29.7293 37.4189 29.2164 36.8732 29.1327 36.1954L28.0637 27.6465C27.8103 25.6782 26.0094 24.2879 24.041 24.5413C22.4203 24.7499 21.1444 26.0258 20.9358 27.6465L19.8668 36.1929C19.7608 37.052 18.9785 37.6624 18.1195 37.5565C17.4417 37.4729 16.8962 36.9599 16.7708 36.2885L14.685 25.1655C14.6715 25.0911 14.6476 25.0191 14.614 24.9515L12.6997 21.1229C11.8692 19.4575 11.4357 17.6225 11.433 15.7615C11.4337 12.469 14.1032 9.80032 17.3958 9.80083C18.2017 9.80093 18.9992 9.96457 19.7402 10.2816C22.7808 11.5785 26.2188 11.5785 29.2593 10.2816C32.2863 8.9863 35.7903 10.3901 37.0857 13.417C37.4027 14.158 37.5663 14.9555 37.5665 15.7615C37.5638 17.6224 37.1303 19.4575 36.2998 21.1229Z" fill="#8ab675"></path><path d="M15.8803 11.5704C14.1208 12.7405 13.0646 14.7142 13.0669 16.8273V17.9665H14.7002V16.8273C14.6985 15.2604 15.482 13.7968 16.7868 12.9293L15.8803 11.5704Z" fill="#8ab675"></path><path d="M25.3169 5.71646H23.6836V7.3498H25.3169V5.71646Z" fill="#8ab675"></path><path d="M41.6499 8.98315H40.0166V10.6165H41.6499V8.98315Z" fill="#8ab675"></path><path d="M8.98344 8.98315H7.3501V10.6165H8.98344V8.98315Z" fill="#8ab675"></path><path d="M38.3833 30.2166H36.75V31.8499H38.3833V30.2166Z" fill="#8ab675"></path><path d="M9.79984 20.4165H8.1665V22.0499H9.79984V20.4165Z" fill="#8ab675"></path><path d="M25.3169 42.4666H23.6836V44.1H25.3169V42.4666Z" fill="#8ab675"></path><path d="M40.8335 20.4165H39.2002V22.0499H40.8335V20.4165Z" fill="#8ab675"></path><path d="M12.25 30.2166H10.6167V31.8499H12.25V30.2166Z" fill="#8ab675"></path></g><defs><clipPath id="clip0"><rect width="49" height="49" fill="white"></rect></clipPath></defs></svg>