<svg width="16" height="20" viewBox="0 0 16 20" fill="none" xmlns="http://www.w3.org/2000/svg"><path d="M7.875 10.6875C9.39378 10.6875 10.625 9.45628 10.625 7.9375C10.625 6.41872 9.39378 5.1875 7.875 5.1875C6.35622 5.1875 5.125 6.41872 5.125 7.9375C5.125 9.45628 6.35622 10.6875 7.875 10.6875Z" stroke="#335424" stroke-width="1.375" stroke-linecap="round" stroke-linejoin="round"></path><path d="M14.75 7.9375C14.75 14.125 7.875 18.9375 7.875 18.9375C7.875 18.9375 1 14.125 1 7.9375C1 6.11414 1.72433 4.36545 3.01364 3.07614C4.30295 1.78683 6.05164 1.0625 7.875 1.0625C9.69836 1.0625 11.447 1.78683 12.7364 3.07614C14.0257 4.36545 14.75 6.11414 14.75 7.9375V7.9375Z" stroke="#335424" stroke-width="1.375" stroke-linecap="round" stroke-linejoin="round"></path></svg>