<svg width="47" height="49" viewBox="0 0 47 49" fill="#8ab675" xmlns="http://www.w3.org/2000/svg"><path d="M5.02819 21.069H4.86207C3.57257 21.069 2.33588 21.5812 1.42407 22.493C0.512252 23.4048 0 24.6415 0 25.931C0 27.2205 0.512252 28.4572 1.42407 29.369C2.33588 30.2809 3.57257 30.7931 4.86207 30.7931H4.88233C5.10573 35.5806 7.16479 40.098 10.6318 43.407C14.0988 46.716 18.7073 48.5623 23.5 48.5623C28.2927 48.5623 32.9012 46.716 36.3682 43.407C39.8352 40.098 41.8943 35.5806 42.1177 30.7931H42.1379C43.4274 30.7931 44.6641 30.2809 45.5759 29.369C46.4877 28.4572 47 27.2205 47 25.931C47 24.6415 46.4877 23.4048 45.5759 22.493C44.6641 21.5812 43.4274 21.069 42.1379 21.069H41.9759C41.5569 17.7666 40.2547 14.6384 38.2066 12.0143C36.1585 9.39007 33.4402 7.36711 30.3385 6.15862C28.6255 4.79425 26.5003 4.05146 24.3103 4.05172H22.1176C21.7875 4.05198 21.4633 3.96457 21.178 3.79843C20.8928 3.6323 20.6568 3.3934 20.4942 3.10616C20.3316 2.81892 20.2482 2.49365 20.2525 2.1636C20.2568 1.83355 20.3487 1.51057 20.5187 1.22767C20.5926 1.10467 20.6326 0.964246 20.6344 0.820761C20.6362 0.677276 20.6 0.535874 20.5292 0.411011C20.4585 0.286148 20.3559 0.182301 20.2319 0.110088C20.1079 0.0378745 19.967 -0.00011597 19.8235 2.65925e-07H19.4483C19.2395 0.000426045 19.0308 0.0131434 18.8235 0.0380864C17.8111 0.122525 16.8277 0.418579 15.9369 0.907091C15.0462 1.3956 14.2679 2.06569 13.6525 2.87399C13.037 3.68229 12.5982 4.61079 12.3642 5.59942C12.1303 6.58805 12.1066 7.61477 12.2946 8.61315C10.3204 10.1062 8.66179 11.9758 7.41457 14.1137C6.16734 16.2517 5.35625 18.6156 5.02819 21.069ZM1.62069 25.931C1.62069 25.0714 1.96219 24.2469 2.57007 23.639C3.17794 23.0312 4.0024 22.6897 4.86207 22.6897H4.88638C4.87422 22.9595 4.86207 23.2285 4.86207 23.5V29.1724C4.0024 29.1724 3.17794 28.8309 2.57007 28.223C1.96219 27.6152 1.62069 26.7907 1.62069 25.931ZM42.1379 22.6897C42.9976 22.6897 43.8221 23.0312 44.4299 23.639C45.0378 24.2469 45.3793 25.0714 45.3793 25.931C45.3793 26.7907 45.0378 27.6152 44.4299 28.223C43.8221 28.8309 42.9976 29.1724 42.1379 29.1724V23.5C42.1379 23.2277 42.1193 22.9595 42.1071 22.6897H42.1379ZM12.8156 10.2614C13.3899 11.5437 14.3214 12.6334 15.4986 13.4003C16.6758 14.1673 18.049 14.579 19.4539 14.5862H21.8793V12.9655H19.4539C18.3001 12.962 17.1746 12.6082 16.2262 11.9509C15.2779 11.2937 14.5514 10.364 14.1429 9.28493C13.8749 8.58171 13.7519 7.83153 13.7812 7.07953C13.8106 6.32752 13.9918 5.58923 14.3139 4.90907C14.2891 5.4437 14.3473 5.97895 14.4865 6.49572C14.8044 7.65448 15.4936 8.677 16.4484 9.40651C17.4032 10.136 18.5708 10.5323 19.7724 10.5345H22.6897C23.7638 10.5358 24.7937 10.9631 25.5532 11.7226C26.3128 12.4822 26.7401 13.512 26.7414 14.5862H28.3621C28.3604 13.0823 27.7622 11.6405 26.6988 10.5771C25.6354 9.51369 24.1935 8.91551 22.6897 8.91379H19.7724C18.9253 8.91342 18.1018 8.63491 17.4284 8.12105C16.7549 7.60719 16.2688 6.88642 16.0448 6.06948C15.9197 5.61107 15.8887 5.13208 15.9537 4.66136C16.0186 4.19065 16.1782 3.73795 16.4228 3.33054C16.6673 2.92313 16.9918 2.56943 17.3767 2.29076C17.7615 2.01208 18.1989 1.8142 18.6622 1.70902C18.5563 2.46731 18.7048 3.23932 19.0844 3.90424C19.3851 4.44377 19.8253 4.89255 20.3589 5.20362C20.8925 5.51469 21.4999 5.6766 22.1176 5.67241H24.3103C26.4588 5.67477 28.5186 6.52928 30.0377 8.04846C31.5569 9.56765 32.4114 11.6274 32.4138 13.7759V14.5862H34.0345V13.7759C34.0343 12.2335 33.6641 10.7138 32.9551 9.34409C35.2903 10.8919 37.2039 12.9959 38.524 15.467C39.844 17.938 40.529 20.6985 40.5172 23.5V29.9828C40.5172 34.496 38.7244 38.8244 35.533 42.0158C32.3417 45.2071 28.0133 47 23.5 47C18.9867 47 14.6583 45.2071 11.467 42.0158C8.27564 38.8244 6.48276 34.496 6.48276 29.9828V23.5C6.48895 20.9615 7.06051 18.4563 8.15594 16.1664C9.25136 13.8764 10.8431 11.8593 12.8156 10.2614Z" fill="#8ab675"></path><path d="M12.9655 26.7414C13.6066 26.7414 14.2333 26.5513 14.7663 26.1951C15.2994 25.8389 15.7148 25.3327 15.9601 24.7404C16.2055 24.1481 16.2697 23.4964 16.1446 22.8676C16.0195 22.2389 15.7108 21.6613 15.2575 21.208C14.8042 20.7547 14.2266 20.446 13.5979 20.3209C12.9691 20.1958 12.3174 20.26 11.7251 20.5054C11.1328 20.7507 10.6266 21.1661 10.2704 21.6992C9.91422 22.2322 9.72412 22.8589 9.72412 23.5C9.72412 24.3597 10.0656 25.1841 10.6735 25.792C11.2814 26.3999 12.1058 26.7414 12.9655 26.7414ZM12.9655 21.8793C13.286 21.8793 13.5994 21.9744 13.8659 22.1524C14.1324 22.3305 14.3402 22.5836 14.4628 22.8798C14.5855 23.1759 14.6176 23.5018 14.555 23.8162C14.4925 24.1306 14.3382 24.4193 14.1115 24.646C13.8848 24.8727 13.5961 25.027 13.2817 25.0896C12.9673 25.1521 12.6414 25.12 12.3453 24.9973C12.0491 24.8747 11.796 24.6669 11.6179 24.4004C11.4399 24.1339 11.3448 23.8205 11.3448 23.5C11.3448 23.0702 11.5156 22.6579 11.8195 22.354C12.1234 22.0501 12.5357 21.8793 12.9655 21.8793Z" fill="#8ab675"></path><path d="M34.0343 26.7414C34.6754 26.7414 35.3021 26.5513 35.8352 26.1951C36.3682 25.8389 36.7837 25.3327 37.029 24.7404C37.2743 24.1481 37.3385 23.4964 37.2134 22.8676C37.0884 22.2389 36.7797 21.6613 36.3263 21.208C35.873 20.7547 35.2955 20.446 34.6667 20.3209C34.0379 20.1958 33.3862 20.26 32.7939 20.5054C32.2016 20.7507 31.6954 21.1661 31.3392 21.6992C30.9831 22.2322 30.793 22.8589 30.793 23.5C30.793 24.3597 31.1345 25.1841 31.7423 25.792C32.3502 26.3999 33.1747 26.7414 34.0343 26.7414ZM34.0343 21.8793C34.3549 21.8793 34.6682 21.9744 34.9348 22.1524C35.2013 22.3305 35.409 22.5836 35.5317 22.8798C35.6543 23.1759 35.6864 23.5018 35.6239 23.8162C35.5614 24.1306 35.407 24.4193 35.1803 24.646C34.9537 24.8727 34.6649 25.027 34.3505 25.0896C34.0361 25.1521 33.7103 25.12 33.4141 24.9973C33.118 24.8747 32.8649 24.6669 32.6868 24.4004C32.5087 24.1339 32.4137 23.8205 32.4137 23.5C32.4137 23.0702 32.5844 22.6579 32.8883 22.354C33.1923 22.0501 33.6045 21.8793 34.0343 21.8793Z" fill="#8ab675"></path><path d="M14.5864 29.9828C14.5864 32.3468 15.5256 34.6141 17.1972 36.2858C18.8689 37.9574 21.1361 38.8965 23.5002 38.8965C25.8643 38.8965 28.1316 37.9574 29.8032 36.2858C31.4749 34.6141 32.414 32.3468 32.414 29.9828C32.414 29.7678 32.3286 29.5617 32.1767 29.4098C32.0247 29.2578 31.8186 29.1724 31.6037 29.1724H15.3968C15.1819 29.1724 14.9757 29.2578 14.8238 29.4098C14.6718 29.5617 14.5864 29.7678 14.5864 29.9828ZM24.3106 30.7931H25.9313V32.4138H24.3106V30.7931ZM22.6899 30.7931V32.4138H21.0692V30.7931H22.6899ZM19.4485 30.7931V33.2241C19.4485 33.4391 19.5339 33.6452 19.6858 33.7971C19.8378 33.9491 20.0439 34.0345 20.2588 34.0345H26.7416C26.9565 34.0345 27.1626 33.9491 27.3146 33.7971C27.4666 33.6452 27.5519 33.4391 27.5519 33.2241V30.7931H30.7488C30.5506 32.577 29.7016 34.2252 28.3643 35.4222C27.0269 36.6193 25.2951 37.2812 23.5002 37.2812C21.7054 37.2812 19.9735 36.6193 18.6362 35.4222C17.2988 34.2252 16.4498 32.577 16.2517 30.7931H19.4485Z" fill="#8ab675"></path></svg>