 <svg
          width="52"
          height="29"
          viewBox="0 0 52 29"
          fill="#8ab675"
          xmlns="http://www.w3.org/2000/svg"
        >
          <path
            d="M52.0002 8.82932V7.1188H50.1733C50.2443 6.33624 50.2896 5.55026 50.2896 4.76C50.2893 2.28348 48.2814 0.27619 45.8049 0.276511C44.616 0.276725 43.4758 0.748935 42.6351 1.58955C42.1385 2.0841 41.3356 2.0841 40.839 1.58955C39.0965 -0.157534 36.2677 -0.161275 34.5205 1.58121C34.3447 1.75643 34.1839 1.94608 34.0397 2.14803C32.6056 0.139989 29.8153 -0.325272 27.8072 1.10879C27.6053 1.253 27.4156 1.41379 27.2404 1.58955C26.7438 2.0841 25.9409 2.0841 25.4443 1.58955C23.7019 -0.157534 20.873 -0.161275 19.1258 1.58121C18.95 1.75643 18.7892 1.94608 18.645 2.14803C17.211 0.139989 14.4206 -0.325272 12.4125 1.10879C12.2106 1.253 12.0209 1.41379 11.8457 1.58955C11.3491 2.0841 10.5463 2.0841 10.0497 1.58955C8.29831 -0.161489 5.45917 -0.161168 3.70813 1.59019C2.86751 2.43091 2.3952 3.57108 2.39509 4.76C2.39509 5.55026 2.44042 6.33624 2.51141 7.1188H0.68457V8.82932H2.71923C2.90728 9.97698 3.1722 11.1107 3.51206 12.223C3.42653 12.2144 3.34101 12.1905 3.25035 12.1905C2.27706 12.1899 1.36792 12.6762 0.828254 13.4862C0.734817 13.6269 0.684891 13.792 0.68457 13.9609V27.645C0.68457 28.1174 1.06751 28.5003 1.53983 28.5003H51.1449C51.6172 28.5003 52.0002 28.1174 52.0002 27.645V13.9609C51.9998 13.792 51.9499 13.6269 51.8565 13.4862C51.3168 12.6762 50.4077 12.1899 49.4344 12.1905C49.3489 12.1905 49.2633 12.2144 49.1727 12.223C49.5125 11.1107 49.7774 9.97698 49.9655 8.82932H52.0002ZM37.6686 1.98724C38.4045 1.98543 39.1106 2.27793 39.6297 2.79974C40.7945 3.96108 42.6795 3.96108 43.8444 2.79974C44.9276 1.71666 46.6838 1.71677 47.7668 2.79995C48.2866 3.31985 48.5788 4.02479 48.5791 4.76C48.5791 5.55026 48.5278 6.33624 48.4517 7.1188H44.3028V6.26354C44.3028 5.79123 43.9199 5.40828 43.4476 5.40828H40.0265C39.5542 5.40828 39.1713 5.79123 39.1713 6.26354V7.1188H35.0224C34.9463 6.33624 34.895 5.55026 34.895 4.76C34.8969 3.22919 36.1377 1.98874 37.6686 1.98724ZM40.0265 10.5398H43.4476C43.9199 10.5398 44.3028 10.1569 44.3028 9.68458V8.82932H48.2285C48.0233 10.0477 47.725 11.2486 47.3364 12.4214L46.9088 13.6932C46.8874 13.7578 46.8736 13.8247 46.8677 13.8925L46.1185 22.8881C46.0921 23.1821 45.8325 23.3991 45.5384 23.3727C45.2809 23.3496 45.0768 23.1455 45.0537 22.8881L44.4285 14.7563C44.3169 13.2654 43.0178 12.1474 41.5271 12.2591C40.197 12.3588 39.1378 13.4123 39.031 14.7417C38.8531 16.909 38.535 20.85 38.3998 22.8864C38.381 23.1767 38.1303 23.3969 37.8399 23.378C37.5778 23.361 37.3682 23.1535 37.3486 22.8915L36.6054 13.8899C36.5995 13.8221 36.5857 13.7552 36.5643 13.6906L36.1367 12.4188C35.7485 11.2468 35.4506 10.0468 35.2455 8.82932H39.1713V9.68458C39.1713 10.157 39.5542 10.5398 40.0265 10.5398ZM40.8818 8.82932V7.1188H42.5923V8.82932H40.8818ZM33.5642 12.9602C33.7455 12.418 33.8952 11.8689 34.0397 11.3173C34.1842 11.8689 34.3339 12.4214 34.5152 12.9602L34.5811 13.1586C34.2226 13.0996 33.8568 13.0996 33.4983 13.1586L33.5642 12.9602ZM22.2739 1.98724C23.0098 1.98543 23.716 2.27793 24.235 2.79974C25.3999 3.96108 27.2849 3.96108 28.4497 2.79974C29.5329 1.71666 31.2891 1.71677 32.3722 2.79995C32.8919 3.31985 33.1841 4.02479 33.1844 4.76C33.1844 5.55026 33.1331 6.33624 33.057 7.1188H28.9081V6.26354C28.9081 5.79123 28.5252 5.40828 28.0529 5.40828H24.6318C24.1595 5.40828 23.7766 5.79123 23.7766 6.26354V7.1188H19.6277C19.5516 6.33624 19.5003 5.55026 19.5003 4.76C19.5022 3.22919 20.743 1.98874 22.2739 1.98724ZM24.6318 10.5398H28.0529C28.5252 10.5398 28.9081 10.1569 28.9081 9.68458V8.82932H32.8338C32.6286 10.0477 32.3304 11.2486 31.9418 12.4214L31.5141 13.6932C31.4927 13.7578 31.4789 13.8247 31.4731 13.8925L30.7239 22.8881C30.6975 23.1821 30.4378 23.3991 30.1437 23.3727C29.8862 23.3496 29.6822 23.1455 29.6591 22.8881L29.0339 14.7563C28.9223 13.2654 27.6231 12.1474 26.1324 12.2591C24.8024 12.3588 23.7431 13.4123 23.6363 14.7417C23.4584 16.909 23.1403 20.85 23.0051 22.8864C22.9863 23.1767 22.7356 23.3969 22.4453 23.378C22.1831 23.361 21.9735 23.1535 21.954 22.8915L21.2108 13.8899C21.2049 13.8221 21.1911 13.7552 21.1698 13.6906L20.743 12.4214C20.3544 11.2486 20.0561 10.0477 19.8509 8.82932H23.7766V9.68458C23.7766 10.157 24.1595 10.5398 24.6318 10.5398ZM25.4871 8.82932V7.1188H27.1976V8.82932H25.4871ZM18.1695 12.9602C18.3508 12.4214 18.5005 11.8689 18.645 11.3173C18.7896 11.8689 18.9392 12.418 19.1206 12.9602L19.2369 13.3109C18.8456 13.239 18.4445 13.239 18.0532 13.3109L18.1695 12.9602ZM6.88029 1.98756C7.61549 1.98789 8.32044 2.27996 8.84033 2.79985C10.0052 3.96118 11.8902 3.96118 13.055 2.79985C14.1382 1.71677 15.8944 1.71688 16.9775 2.80006C17.4973 3.31995 17.7894 4.0249 17.7898 4.7601C17.7898 5.55036 17.7385 6.33635 17.6623 7.11891H13.5135V6.26365C13.5135 5.79133 13.1305 5.40839 12.6582 5.40839H9.23717C8.76485 5.40839 8.38191 5.79133 8.38191 6.26365V7.11891H4.23304C4.15693 6.33624 4.10561 5.55026 4.10561 4.76C4.10625 3.22823 5.34852 1.98692 6.88029 1.98756ZM9.23717 10.5398H12.6582C13.1305 10.5398 13.5135 10.1569 13.5135 9.68458V8.82932H17.4391C17.234 10.0477 16.9357 11.2486 16.5471 12.4214L16.1194 13.6932C16.0981 13.7578 16.0843 13.8247 16.0784 13.8925L15.3292 22.8881C15.3028 23.1821 15.0431 23.3991 14.749 23.3727C14.4915 23.3496 14.2875 23.1455 14.2644 22.8881L13.6392 14.7563C13.5276 13.2654 12.2284 12.1474 10.7377 12.2591C9.40769 12.3588 8.34845 13.4123 8.24165 14.7417C8.06375 16.909 7.74559 20.85 7.61046 22.8864C7.59165 23.1767 7.34095 23.3969 7.05059 23.378C6.78845 23.361 6.57881 23.1535 6.55935 22.8915L5.81613 13.8899C5.81025 13.8221 5.79646 13.7552 5.77508 13.6906L5.34745 12.4188C4.95927 11.2468 4.66131 10.0468 4.45627 8.82932H8.38191V9.68458C8.38191 10.157 8.76485 10.5398 9.23717 10.5398ZM10.0924 8.82932V7.1188H11.8029V8.82932H10.0924ZM50.2896 14.2577V26.7898H2.39509V14.2577C2.88719 13.7942 3.66034 13.8122 4.13041 14.2979L4.85824 23.0266C4.96044 24.2581 6.0417 25.1734 7.27306 25.0711C8.37517 24.9796 9.24508 24.0966 9.32013 22.9933C9.45526 20.968 9.77256 17.0381 9.9496 14.8743C9.99707 14.3255 10.4803 13.9192 11.029 13.9667C11.5145 14.0087 11.8986 14.3954 11.9372 14.8811L12.5624 23.013C12.6612 24.2489 13.7431 25.1709 14.9792 25.0721C16.0728 24.9848 16.9432 24.1198 17.0371 23.0266L17.6811 15.3045C18.2462 14.858 19.0439 14.858 19.6089 15.3045L20.2529 23.0266C20.3551 24.2581 21.4363 25.1734 22.6677 25.0711C23.7699 24.9796 24.6398 24.0966 24.7148 22.9933C24.8499 20.968 25.1672 17.0381 25.3443 14.8743C25.3917 14.3255 25.875 13.9192 26.4237 13.9667C26.9093 14.0087 27.2933 14.3954 27.3319 14.8811L27.9571 23.013C28.0559 24.2489 29.1379 25.1709 30.3738 25.0721C31.4675 24.9848 32.3377 24.1198 32.4318 23.0266L33.0887 15.1463C33.6492 14.7145 34.4302 14.7145 34.9908 15.1463L35.6476 23.0266C35.7498 24.2581 36.8311 25.1734 38.0624 25.0711C39.1645 24.9796 40.0344 24.0966 40.1095 22.9933C40.2446 20.968 40.5619 17.0381 40.739 14.8743C40.7864 14.3255 41.2696 13.9192 41.8184 13.9667C42.304 14.0087 42.688 14.3954 42.7266 14.8811L43.3518 23.013C43.4506 24.2489 44.5326 25.1709 45.7685 25.0721C46.8622 24.9848 47.7324 24.1198 47.8265 23.0266L48.5543 14.297C49.0247 13.8115 49.7978 13.794 50.2896 14.2577Z"
            fill="#8ab675"
          ></path>
        </svg>