<svg width="47" height="47" viewBox="0 0 47 47" fill="#8ab675" xmlns="http://www.w3.org/2000/svg"><g clip-path="url(#clip0)"><path d="M30.3149 -2.69473e-05C29.3286 -0.00100611 28.3525 0.199429 27.4463 0.58904C24.9237 1.66456 22.0715 1.66456 19.5488 0.58904C15.8493 -0.992608 11.5681 0.724165 9.98642 4.42365C9.59975 5.32801 9.40029 6.3014 9.3999 7.28497C9.40343 10.3203 10.1045 13.3143 11.4491 16.0356L12.5654 19.8081C12.6647 20.1399 12.9702 20.367 13.3166 20.3666H15.6666V24.2833C15.6666 24.7159 16.0173 25.0666 16.4499 25.0666H18.7999V26.8895L16.5361 26.638L16.3637 28.1953L18.7999 28.4663V31.5895L16.5361 31.338L16.3637 32.8953L18.7999 33.1663V36.2895L16.5361 36.038L16.3637 37.5953L18.7999 37.8663V40.9895L16.5361 40.738L16.3637 42.2953L18.8524 42.5718C18.8524 42.5781 18.8524 42.5843 18.8524 42.5906L20.4191 46.5072C20.5384 46.806 20.8282 47.0013 21.1499 47H25.8499C26.1705 47.0001 26.4587 46.8049 26.5776 46.5072L27.7526 43.5611L30.4606 43.8619L30.6329 42.3047L28.1999 42.0336V38.9105L30.4637 39.1619L30.6361 37.6047L28.1999 37.3336V34.2105L30.4637 34.4619L30.6361 32.9047L28.1999 32.6336V29.5105L30.4637 29.7619L30.6361 28.2047L28.1999 27.9336V25.0666H30.5499C30.9825 25.0666 31.3332 24.7159 31.3332 24.2833V20.3666H33.6832C34.0302 20.3667 34.3359 20.1385 34.4344 19.8058L35.5507 16.0332C36.8949 13.3126 37.5961 10.3195 37.5999 7.28497C37.5969 3.26285 34.337 0.00300847 30.3149 -2.69473e-05ZM25.3172 45.4333H21.6802L20.6141 42.77L26.1405 43.3841L25.3172 45.4333ZM26.6332 41.8597L20.3666 41.1633V38.0402L26.6332 38.7366V41.8597ZM26.6332 37.1597L20.3666 36.4634V33.3402L26.6332 34.0366V37.1597ZM26.6332 32.4597L20.3666 31.7634V28.6402L26.6332 29.3366V32.4597ZM26.6332 27.7597L20.3666 27.0634V25.0666H26.6332V27.7597ZM29.7666 23.5H17.2332V20.3666H29.7666V23.5ZM34.118 15.3948C34.0976 15.4358 34.0809 15.4785 34.0679 15.5225L33.0981 18.8H13.9017L12.932 15.5225C12.9189 15.4785 12.9022 15.4358 12.8818 15.3948C11.6256 12.8757 10.9701 10.0999 10.9666 7.28497C10.9674 4.12687 13.5281 1.56723 16.6863 1.56801C17.4589 1.56821 18.2235 1.72497 18.9339 2.02881C21.8505 3.27274 25.1485 3.27274 28.0652 2.02881C30.9686 0.786342 34.3296 2.13279 35.572 5.03622C35.8762 5.7469 36.033 6.51192 36.0332 7.28497C36.0297 10.0999 35.3742 12.8757 34.118 15.3948Z" fill="#8ab675"></path><path d="M15.2749 3.23672C13.6232 4.11181 12.5743 5.81193 12.5332 7.68058V8.61666H14.0999V7.67666C14.1465 6.37006 14.8954 5.19055 16.0582 4.59268L15.2749 3.23672Z" fill="#8ab675"></path></g><defs><clipPath id="clip0"><rect width="47" height="47" fill="white"></rect></clipPath></defs></svg>