<svg width="47" height="47" viewBox="0 0 47 47" fill="#8ab675" xmlns="http://www.w3.org/2000/svg"><g clip-path="url(#clip0)"><path d="M17.7253 21.621L15.2836 22.5986C14.4493 22.93 13.5044 22.5222 13.173 21.6879C13.0031 21.2601 13.0226 20.7803 13.2266 20.3677L13.7647 19.2914C14.0664 18.6881 13.948 17.9595 13.471 17.4827L9.7243 13.736L10.7372 12.7232C11.0429 12.4173 11.0429 11.9214 10.7372 11.6155L8.15763 9.0361L8.38715 8.80659C8.68707 8.50686 8.69402 8.02286 8.40282 7.71462L1.35282 0.247103C1.05574 -0.0675034 0.559985 -0.0816034 0.245477 0.215476C0.0889083 0.36333 9.79167e-05 0.569053 0 0.784372V10.9677C0 11.1984 0.101735 11.4173 0.278083 11.5662L2.62808 13.5527C2.93907 13.8152 3.39937 13.7958 3.68715 13.5081L3.91667 13.2762L6.49618 15.8557C6.80208 16.1615 7.29793 16.1615 7.60382 15.8557L8.61667 14.8429L12.3634 18.5895L11.8283 19.6627C11.0409 21.2386 11.6801 23.1544 13.256 23.9418C14.0713 24.3492 15.0219 24.3883 15.868 24.0494L18.3112 23.0726L17.7253 21.621ZM3.36285 11.6171L3.08868 11.8913L1.56667 10.6042V2.75524L6.74137 8.23857L6.49618 8.48376L3.36285 11.6171ZM7.05 14.1943L5.0243 12.1686L7.05 10.1429L9.0757 12.1709L7.05 14.1943Z" fill="#8ab675"></path><path d="M46.5165 22.7759C46.2237 22.6546 45.8867 22.7218 45.6626 22.9459L34.696 33.9126C34.3902 34.2184 34.3902 34.7143 34.696 35.0202L35.3171 35.6414L32.2433 38.7152C31.0275 37.9697 29.6258 37.5831 28.1998 37.5997C24.7445 37.5997 21.9331 39.7077 21.9331 42.2997C21.9331 44.8918 24.7445 46.9997 28.1998 46.9997C31.6551 46.9997 34.4664 44.8918 34.4664 42.2997C34.4509 41.3472 34.0863 40.4335 33.4418 39.7319L36.4248 36.749L37.046 37.3702C37.3518 37.676 37.8477 37.676 38.1536 37.3702L46.7703 28.7535C46.9171 28.6067 46.9998 28.4075 46.9998 28.1997V23.4997C46.9999 23.1829 46.8091 22.8973 46.5165 22.7759ZM28.1998 45.433C25.6524 45.433 23.4998 43.998 23.4998 42.2997C23.4998 40.6014 25.6524 39.1664 28.1998 39.1664C30.7472 39.1664 32.8998 40.6014 32.8998 42.2997C32.8998 43.998 30.7472 45.433 28.1998 45.433ZM45.4331 27.8754L37.5998 35.7087L36.3574 34.4664L45.4331 25.3907V27.8754Z" fill="#8ab675"></path><path d="M27.0082 26.4717C26.6847 24.534 24.8516 23.2253 22.9139 23.549C21.4154 23.7991 20.2413 24.9732 19.9911 26.4717L17.6247 40.6704C17.4474 41.7325 16.4426 42.4497 15.3805 42.2725C14.5384 42.1319 13.8857 41.4599 13.7699 40.614L11.7426 25.744C11.7281 25.6327 11.69 25.5258 11.6306 25.4306L11.1951 24.7335C9.86851 22.6126 8.91226 20.2816 8.36725 17.8401L6.8374 18.1817C7.42196 20.7978 8.44745 23.2954 9.86969 25.5677L10.2159 26.1223L12.2213 40.8255C12.4832 42.7493 14.2551 44.0967 16.1789 43.8347C17.7059 43.6269 18.9194 42.4489 19.1726 40.9289L21.539 26.7302C21.6962 25.7698 22.5266 25.0651 23.4997 25.0664C24.4741 25.0636 25.3062 25.7686 25.4635 26.7302L27.0357 36.1623L28.5804 35.9038L27.0082 26.4717Z" fill="#8ab675"></path><path d="M30.8507 3.13322C29.5126 3.13322 28.1884 3.40503 26.9585 3.93202C24.749 4.87359 22.2512 4.87359 20.0417 3.93202C16.1604 2.26861 11.6511 3.25502 8.81885 6.38699L9.98131 7.44135C11.5585 5.69824 13.7986 4.70253 16.1493 4.69969C17.2753 4.69841 18.3898 4.92715 19.4244 5.37179C22.028 6.48255 24.9722 6.48255 27.5758 5.37179C31.7973 3.56297 36.6858 5.51886 38.4947 9.74044C38.9381 10.7754 39.1668 11.8896 39.1668 13.0156C39.1681 17.1609 38.003 21.2229 35.8047 24.7374L35.3692 25.4345C35.3098 25.5297 35.2716 25.6366 35.2571 25.7479L34.6164 30.4479L36.1682 30.6594L36.787 26.1262L37.1332 25.5716C39.4879 21.8071 40.7355 17.4559 40.7334 13.0156C40.7333 7.55758 36.3087 3.13312 30.8507 3.13322Z" fill="#8ab675"></path></g><defs><clipPath id="clip0"><rect width="47" height="47" fill="white"></rect></clipPath></defs></svg>