<svg width="51" height="51" viewBox="0 0 51 51" fill="#8ab675" xmlns="http://www.w3.org/2000/svg"><g clip-path="url(#clip0)"><path d="M38.9647 32.1546L31.336 30.0747C31.2994 30.0645 31.2623 30.0569 31.2246 30.0518C30.3813 29.9371 29.7519 29.2181 29.7499 28.3671V26.0499C32.3763 24.5336 33.9959 21.7327 33.9999 18.7C35.8777 18.7 37.3999 17.1778 37.3999 15.3C37.3971 14.4794 37.0949 13.6882 36.5499 13.0747V8.84C36.543 6.75208 35.4476 4.81886 33.6599 3.74L32.2608 2.9002C32.0115 1.23547 30.5831 0.00286877 28.8999 2.22412e-08H17.8499C17.3805 -0.000106228 16.9998 0.380481 16.9998 0.849894C16.9998 1.01788 17.0495 1.18203 17.1427 1.32175L18.348 3.1297L17.3399 3.74C15.5522 4.81886 14.4568 6.75208 14.4499 8.84V13.0773C13.9055 13.69 13.6033 14.4803 13.5999 15.3C13.5999 17.1778 15.1221 18.7 16.9999 18.7C17.0039 21.7327 18.6235 24.5336 21.2499 26.0499V28.3671C21.2479 29.218 20.6185 29.9371 19.7752 30.0518C19.7375 30.0569 19.7004 30.0645 19.6638 30.0747L12.0351 32.1546C9.4485 32.8643 7.65415 35.2135 7.6499 37.8955V51H9.3499V43.35H13.5999V51H15.2999V39.1H13.5999V41.65H9.3499V37.8955C9.35341 35.98 10.635 34.3023 12.4822 33.7952L20.0472 31.7314L24.6499 40.1668V51H26.3499V40.1668L30.9509 31.7314L38.5159 33.7952C40.3638 34.3016 41.6462 35.9795 41.6499 37.8955V41.65H37.3999V39.1H35.6999V51H37.3999V43.35H41.6499V51H43.3499V37.8955C43.3456 35.2135 41.5513 32.8643 38.9647 32.1546ZM32.2999 17H18.6999V12.8877L20.1628 8.5H30.837L32.2999 12.8877V17ZM35.6999 15.3C35.6999 16.2389 34.9388 17 33.9999 17V13.6C34.9388 13.6 35.6999 14.3611 35.6999 15.3ZM16.9999 17C16.061 17 15.2999 16.2389 15.2999 15.3C15.2999 14.3611 16.061 13.6 16.9999 13.6V17ZM16.9999 11.9C16.7126 11.9036 16.4269 11.9442 16.1499 12.0207V8.84C16.1536 7.34719 16.9359 5.96456 18.2137 5.19265L19.9877 4.12845C20.39 3.88673 20.5203 3.36451 20.2786 2.96214C20.2717 2.95067 20.2645 2.93941 20.2571 2.92825L19.4377 1.7H28.8999C29.8388 1.7 30.5999 2.46107 30.5999 3.4C30.6 3.69835 30.7564 3.97481 31.0121 4.12845L32.7861 5.19265C34.0639 5.96456 34.8462 7.34719 34.8499 8.84V12.0233C34.573 11.9458 34.2873 11.9045 33.9999 11.9H33.7619L32.2557 7.3814C32.1401 7.03439 31.8156 6.80032 31.4499 6.8H19.5499C19.1842 6.80032 18.8597 7.03439 18.7441 7.3814L17.2379 11.9H16.9999ZM18.6999 18.7H32.2999C32.2999 22.4555 29.2554 25.5 25.4999 25.5C21.7444 25.5 18.6999 22.4555 18.6999 18.7ZM25.4999 38.1752L21.6163 31.0548C22.4534 30.4141 22.9461 29.4213 22.9499 28.3671V26.8082C23.7749 27.0679 24.6349 27.2001 25.4999 27.2C26.3649 27.2001 27.2249 27.0679 28.0499 26.8082V28.3671C28.0537 29.4213 28.5464 30.4141 29.3836 31.0548L25.4999 38.1752Z" fill="#8ab675"></path><path d="M22.0999 16.15C23.0388 16.15 23.7999 15.3889 23.7999 14.45C23.7999 13.5111 23.0388 12.75 22.0999 12.75C21.161 12.75 20.3999 13.5111 20.3999 14.45C20.3999 15.3889 21.161 16.15 22.0999 16.15Z" fill="#8ab675"></path><path d="M28.9002 16.15C29.8391 16.15 30.6002 15.3889 30.6002 14.45C30.6002 13.5111 29.8391 12.75 28.9002 12.75C27.9613 12.75 27.2002 13.5111 27.2002 14.45C27.2002 15.3889 27.9613 16.15 28.9002 16.15Z" fill="#8ab675"></path><path d="M33.9998 43.35H28.0498V45.05H33.9998V43.35Z" fill="#8ab675"></path></g><defs><clipPath id="clip0"><rect width="51" height="51" fill="#8ab675"></rect></clipPath></defs></svg>