<svg width="47" height="48" viewBox="0 0 47 48" fill="#8ab675" xmlns="http://www.w3.org/2000/svg"><g clip-path="url(#clip0)"><path d="M23.8967 32.7126L22.5525 45.0705C22.4552 45.8912 21.7249 46.4759 20.9213 46.3765C20.2807 46.2973 19.7661 45.7995 19.6541 45.1505L18.0005 35.0407C17.677 33.0617 15.8438 31.7252 13.906 32.0557C12.4076 32.3112 11.2334 33.5104 10.9832 35.0407L9.33274 45.1505C9.19516 45.9647 8.43727 46.5108 7.64012 46.3703C7.00071 46.2576 6.51004 45.7287 6.43435 45.0705L5.08699 32.7126C5.07651 32.6187 5.04998 32.5275 5.00866 32.443L3.8728 30.123C2.6169 27.5501 1.96163 24.7153 1.9583 21.8404C1.95889 18.6151 4.51955 16.0008 7.67772 16.0013C8.45078 16.0014 9.21572 16.1617 9.92651 16.4723C10.5862 16.7609 11.2706 16.9864 11.9711 17.1459L12.3126 15.5843C11.7065 15.446 11.1142 15.251 10.543 15.0019C6.84404 13.3852 2.56216 15.1371 0.979113 18.9148C0.591649 19.8394 0.391797 20.8347 0.391602 21.8404C0.39542 24.9638 1.10748 28.0439 2.47217 30.839L3.54536 33.031L4.87705 45.2473C5.0632 46.9466 6.56301 48.17 8.22684 47.9799C9.57332 47.826 10.6563 46.7785 10.8798 45.4137L12.5304 35.2991C12.7122 34.1914 13.7389 33.444 14.8235 33.6298C15.6612 33.7733 16.3176 34.4436 16.4581 35.2991L18.1086 45.4145C18.3849 47.1009 19.9476 48.2393 21.5989 47.9571C22.9352 47.7287 23.9609 46.6225 24.1114 45.2473L25.454 32.8886L23.8967 32.7126Z" fill="#8ab675"></path><path d="M6.22305 17.7347C4.53533 18.881 3.52217 20.8145 3.52442 22.8844V24.0005H5.09111V22.8844C5.08945 21.3495 5.84097 19.9158 7.09257 19.066L6.22305 17.7347Z" fill="#8ab675"></path><path d="M45.8253 12.8002H42.055C41.8605 12.1963 41.6221 11.608 41.3422 11.0402L44.0056 8.32015C44.3116 8.00795 44.3119 7.50134 44.0061 7.18873C44.0059 7.18853 44.0058 7.18833 44.0056 7.18813L39.5749 2.65765C39.2638 2.35784 38.7777 2.35784 38.4665 2.65765L35.8031 5.3777C35.2457 5.09149 34.668 4.84839 34.0751 4.65049V0.800015C34.0751 0.358207 33.7243 0 33.2917 0H27.0249C26.5923 0 26.2416 0.358207 26.2416 0.800015V4.65049C25.6485 4.84899 25.0709 5.09259 24.5135 5.3793L21.8501 2.65925C21.5444 2.34664 21.0484 2.34634 20.7423 2.65865C20.7421 2.65885 20.7419 2.65905 20.7417 2.65925L16.3103 7.18493C16.0042 7.49714 16.0039 8.00375 16.3097 8.31635C16.3099 8.31656 16.3101 8.31675 16.3103 8.31695L18.9737 11.037C18.6938 11.6059 18.4558 12.1952 18.2616 12.8002H14.4914C14.0588 12.8002 13.708 13.1584 13.708 13.6003V20.0004C13.708 20.4422 14.0588 20.8004 14.4914 20.8004H18.2616C18.4562 21.4043 18.6945 21.9926 18.9745 22.5604L16.3111 25.2805C16.005 25.5927 16.0047 26.0993 16.3105 26.4119C16.3107 26.4121 16.3109 26.4123 16.3111 26.4125L20.7425 30.9382C21.0537 31.238 21.5397 31.238 21.8509 30.9382L24.5143 28.2181C25.0714 28.5059 25.6487 28.7506 26.2416 28.9501V32.8006C26.2416 33.2424 26.5923 33.6006 27.0249 33.6006H33.2917C33.7243 33.6006 34.0751 33.2424 34.0751 32.8006V28.9501C34.6681 28.7516 35.2458 28.508 35.8031 28.2213L38.4665 30.9414C38.7722 31.254 39.2683 31.2543 39.5744 30.942C39.5745 30.9418 39.5747 30.9416 39.5749 30.9414L44.0063 26.4157C44.3124 26.1035 44.3127 25.5969 44.0069 25.2843C44.0067 25.2841 44.0065 25.2839 44.0063 25.2837L41.343 22.5636C41.6229 21.9958 41.8612 21.4075 42.0558 20.8036H45.8253C46.2579 20.8036 46.6086 20.4454 46.6086 20.0036V13.6003C46.6086 13.1584 46.2579 12.8002 45.8253 12.8002ZM45.0419 19.2004H41.473C41.1208 19.2003 40.8118 19.4402 40.7178 19.7868C40.482 20.6694 40.1399 21.5188 39.6995 22.3156C39.5259 22.6285 39.5782 23.0213 39.8272 23.2756L42.3488 25.8501L39.0242 29.2453L36.5034 26.6709C36.2542 26.4168 35.8697 26.3638 35.5634 26.5413C34.7827 26.9906 33.9508 27.3399 33.0865 27.5813C32.7471 27.6773 32.5122 27.9928 32.5123 28.3525V32.0006H27.8083V28.3557C27.8084 27.996 27.5735 27.6805 27.2341 27.5845C26.3697 27.3431 25.5378 26.9938 24.7571 26.5445C24.4508 26.367 24.0663 26.42 23.8171 26.6741L21.2963 29.2493L17.9718 25.8541L20.4934 23.2804C20.7424 23.0261 20.7947 22.6333 20.6211 22.3204C20.1806 21.5236 19.8386 20.6742 19.6027 19.7916C19.5101 19.4417 19.1986 19.1991 18.8436 19.2004H15.2747V14.4003H18.8436C19.1958 14.4004 19.5048 14.1605 19.5988 13.8139C19.8347 12.9312 20.1767 12.0818 20.6171 11.285C20.7907 10.9721 20.7385 10.5793 20.4895 10.325L17.9679 7.75054L21.2924 4.35528L23.8132 6.93053C24.0624 7.18463 24.4469 7.23763 24.7532 7.06013C25.5339 6.61082 26.3658 6.26152 27.2302 6.02011C27.5725 5.92521 27.8096 5.6072 27.8083 5.2449V1.60003H32.5084V5.2449C32.5083 5.6046 32.7432 5.92011 33.0826 6.01611C33.9469 6.25752 34.7788 6.60682 35.5595 7.05613C35.8658 7.23363 36.2503 7.18063 36.4995 6.92653L39.0203 4.35128L42.3449 7.74654L39.8233 10.321C39.5743 10.5753 39.522 10.9681 39.6956 11.281C40.136 12.0778 40.478 12.9272 40.7139 13.8099C40.8079 14.1565 41.1169 14.3964 41.4691 14.3963H45.0419V19.2004Z" fill="#8ab675"></path><path d="M30.1587 8.80017C25.8323 8.80017 22.3252 12.3819 22.3252 16.8003C22.3252 21.2187 25.8323 24.8005 30.1587 24.8005C34.485 24.8005 37.9922 21.2187 37.9922 16.8003C37.9874 12.3839 34.483 8.80507 30.1587 8.80017ZM30.1587 23.2004C26.6976 23.2004 23.8919 20.335 23.8919 16.8003C23.8919 13.2657 26.6976 10.4002 30.1587 10.4002C33.6197 10.4002 36.4255 13.2657 36.4255 16.8003C36.4215 20.3334 33.618 23.1964 30.1587 23.2004Z" fill="#8ab675"></path></g><defs><clipPath id="clip0"><rect width="47" height="48" fill="white"></rect></clipPath></defs></svg>